<svg width="401" height="584" viewBox="0 0 401 584" fill="none" xmlns="http://www.w3.org/2000/svg">
<path d="M236.655 379.584C236.748 382.754 240.066 384.775 242.94 383.421L286.448 362.659C292.288 359.637 294.939 358.822 295.106 367.812C296.83 466.712 242.124 497.485 184.212 499.246C88.7967 502.157 69.9807 357.987 142.427 311.476L238.324 258.587C240.011 257.66 241.049 255.88 241.049 253.952L240.771 200.971C240.752 197.337 237.137 194.816 233.726 196.058L204.14 206.736C163.004 223.791 99.1038 201.935 97.2686 141.538C96.2675 108.8 115.899 74.8017 158.036 70.4082C201.396 65.8849 239.325 105.538 240.604 147.878C240.66 149.565 242.476 150.603 243.959 149.788L288.895 124.724C289.692 124.279 290.156 123.408 290.063 122.5C282.815 52.0371 222.233 -1.88983 150.324 0.29765C75.0601 2.59635 15.9055 65.4585 18.2042 140.723C19.6317 187.475 44.454 228.018 81.0849 251.468C30.6988 284.985 -1.79821 342.972 0.185345 407.91C3.29972 510.036 90.3539 589.823 193.147 583.149C290.879 576.809 365.253 492.647 362.269 394.748L360.137 324.897C360.081 323.043 361.064 321.319 362.676 320.411L395.692 302.003C398.64 300.371 400.42 297.22 400.308 293.846L398.418 231.633C398.325 228.426 394.895 226.442 392.059 227.944L239.529 308.992C236.489 310.604 234.635 313.793 234.746 317.222L236.655 379.584Z" fill="#5B6098"/>
<mask id="mask0_1218_22153" style="mask-type:alpha" maskUnits="userSpaceOnUse" x="0" y="0" width="401" height="584">
<path d="M236.655 379.584C236.748 382.754 240.066 384.775 242.94 383.421L286.448 362.659C292.288 359.637 294.939 358.822 295.106 367.812C296.83 466.712 242.124 497.485 184.212 499.246C88.7967 502.157 69.9807 357.987 142.427 311.476L238.324 258.587C240.011 257.66 241.049 255.88 241.049 253.952L240.771 200.971C240.752 197.337 237.137 194.816 233.726 196.058L204.14 206.736C163.004 223.791 99.1038 201.935 97.2686 141.538C96.2675 108.8 115.899 74.8017 158.036 70.4082C201.396 65.8849 239.325 105.538 240.604 147.878C240.66 149.565 242.476 150.603 243.959 149.788L288.895 124.724C289.692 124.279 290.156 123.408 290.063 122.5C282.815 52.0371 222.233 -1.88983 150.324 0.29765C75.0601 2.59635 15.9055 65.4585 18.2042 140.723C19.6317 187.475 44.454 228.018 81.0849 251.468C30.6988 284.985 -1.79821 342.972 0.185345 407.91C3.29972 510.036 90.3539 589.823 193.147 583.149C290.879 576.809 365.253 492.647 362.269 394.748L360.137 324.897C360.081 323.043 361.064 321.319 362.676 320.411L395.692 302.003C398.64 300.371 400.42 297.22 400.308 293.846L398.418 231.633C398.325 228.426 394.895 226.442 392.059 227.944L239.529 308.992C236.489 310.604 234.635 313.793 234.746 317.222L236.655 379.584Z" fill="white"/>
</mask>
<g mask="url(#mask0_1218_22153)">
<rect width="400" height="583" transform="translate(0 -1)" fill="#111827"/>
</g>
</svg>
