<svg width="141" height="205" viewBox="0 0 141 205" fill="none" xmlns="http://www.w3.org/2000/svg">
<mask id="mask0_531_10198" style="mask-type:alpha" maskUnits="userSpaceOnUse" x="0" y="0" width="141" height="205">
<path d="M82.9509 133.023C82.9834 134.135 84.147 134.844 85.1546 134.369L100.411 127.088C102.459 126.029 103.389 125.743 103.447 128.896C104.052 163.576 84.8686 174.367 64.5609 174.984C31.1027 176.005 24.5046 125.45 49.9087 109.14L83.536 90.5944C84.1275 90.2694 84.4915 89.6453 84.4915 88.9693L84.394 70.3908C84.3875 69.1167 83.1199 68.2326 81.9238 68.6681L71.549 72.4124C57.1243 78.3929 34.717 70.7288 34.0734 49.5501C33.7224 38.0701 40.6065 26.1482 55.3822 24.6075C70.5869 23.0214 83.887 36.926 84.3355 51.7733C84.355 52.3648 84.9921 52.7288 85.5121 52.4428L101.269 43.6541C101.549 43.4981 101.711 43.1926 101.679 42.874C99.1372 18.1655 77.8935 -0.744532 52.6779 0.0225304C26.2858 0.828596 5.5426 22.8719 6.34867 49.2641C6.84921 65.6584 15.5534 79.8751 28.3985 88.0982C10.73 99.8512 -0.665407 120.185 0.0301498 142.956C1.12224 178.768 31.6487 206.746 67.6942 204.406C101.965 202.183 128.045 172.67 126.999 138.341L126.251 113.847C126.231 113.197 126.576 112.592 127.142 112.274L138.719 105.819C139.753 105.247 140.377 104.142 140.338 102.958L139.675 81.1427C139.642 80.0181 138.439 79.3225 137.445 79.8491L83.9585 108.269C82.8924 108.835 82.2424 109.953 82.2814 111.156L82.9509 133.023Z" fill="url(#paint0_linear_531_10198)"/>
</mask>
<g mask="url(#mask0_531_10198)">
<rect x="-44.203" y="-22.6678" width="214.779" height="249.347" fill="#3D1558"/>
<path d="M4.25324 5.24281L97.5495 -30.1673L207.131 22.7152L119.559 239.39L4.25314 208.851L-33.5889 103.971L4.25324 5.24281Z" fill="url(#paint1_radial_531_10198)"/>
<rect x="43.3286" y="220.721" width="69.5436" height="57.7186" transform="rotate(-93.2683 43.3286 220.721)" fill="url(#paint2_radial_531_10198)"/>
<rect x="49.9469" y="48.7358" width="12.3623" height="77.3525" transform="rotate(1.54286 49.9469 48.7358)" fill="url(#paint3_linear_531_10198)"/>
<path d="M31.5422 88.2506L2.27327 88.2504L-11.0999 200.115L20.1112 210.656L59.8072 216.238L31.5422 88.2506Z" fill="url(#paint4_linear_531_10198)"/>
<rect x="33.2185" y="48.4529" width="28.3431" height="77.3525" transform="rotate(1.54286 33.2185 48.4529)" fill="url(#paint5_linear_531_10198)"/>
<ellipse cx="73.4846" cy="79.7585" rx="40.8247" ry="26.2997" fill="url(#paint6_radial_531_10198)"/>
<rect x="-17.0861" y="35.8611" width="62.7018" height="77.3524" transform="rotate(-47.6236 -17.0861 35.8611)" fill="url(#paint7_linear_531_10198)" fill-opacity="0.9"/>
<rect x="19.6682" y="111.226" width="57.4707" height="58.9134" transform="rotate(-123.809 19.6682 111.226)" fill="url(#paint8_linear_531_10198)" fill-opacity="0.55"/>
<rect width="45.1333" height="78.088" transform="matrix(-0.383393 -0.923585 -0.923585 0.383393 64.0594 147.656)" fill="url(#paint9_linear_531_10198)" fill-opacity="0.55"/>
<rect width="21.2546" height="46.2394" transform="matrix(0.841805 -0.539781 -0.539781 -0.841805 44.6505 42.7211)" fill="url(#paint10_linear_531_10198)"/>
<rect width="32.5641" height="46.2394" transform="matrix(0.890384 0.45521 0.45521 -0.890384 61.924 52.2334)" fill="url(#paint11_linear_531_10198)"/>
<rect x="65.7271" y="176.014" width="47.4338" height="46.2393" transform="rotate(-32.7307 65.7271 176.014)" fill="url(#paint12_linear_531_10198)"/>
<path d="M71.2278 99.0674L116.888 89.2131L119.739 149.194L72.3165 150.203L71.2278 99.0674Z" fill="url(#paint13_linear_531_10198)"/>
<rect x="79.4757" y="161.148" width="49.791" height="46.2393" transform="rotate(-57.3561 79.4757 161.148)" fill="url(#paint14_linear_531_10198)"/>
<rect x="37.0863" y="216.595" width="31.7198" height="114.504" transform="rotate(172.605 37.0863 216.595)" fill="url(#paint15_linear_531_10198)"/>
<rect width="45.1333" height="62.1771" transform="matrix(-0.918682 -0.394998 -0.394998 0.918682 75.7437 157.259)" fill="url(#paint16_linear_531_10198)"/>
<rect opacity="0.8" width="63.2895" height="75.7705" transform="matrix(-0.624027 -0.781403 -0.781403 0.624026 53.2292 120.07)" fill="url(#paint17_radial_531_10198)"/>
<rect opacity="0.66" width="49.7052" height="54.3243" transform="matrix(-0.772812 0.634635 0.634634 0.772813 17.4418 138.202)" fill="url(#paint18_radial_531_10198)"/>
<rect width="61.6299" height="64.0401" transform="matrix(-0.798945 0.601403 0.601404 0.798945 133.295 79.1353)" fill="url(#paint19_radial_531_10198)"/>
<rect opacity="0.66" width="103.402" height="51.5794" transform="matrix(-0.212374 0.977188 0.977188 0.212374 111.853 86.8398)" fill="url(#paint20_radial_531_10198)"/>
<rect x="172.116" y="102.252" width="54.8194" height="74.0962" transform="rotate(124.658 172.116 102.252)" fill="url(#paint21_linear_531_10198)"/>
</g>
<defs>
<linearGradient id="paint0_linear_531_10198" x1="99.3558" y1="-82.967" x2="-82.3636" y2="-6.30496" gradientUnits="userSpaceOnUse">
<stop stop-color="#F9F871"/>
<stop offset="0.213963" stop-color="#FFC75F"/>
<stop offset="0.423162" stop-color="#FF9671"/>
<stop offset="0.61651" stop-color="#FF6F91"/>
<stop offset="0.805455" stop-color="#D65DB1"/>
<stop offset="1" stop-color="#845EC2"/>
</linearGradient>
<radialGradient id="paint1_radial_531_10198" cx="0" cy="0" r="1" gradientUnits="userSpaceOnUse" gradientTransform="translate(82.767 107.348) rotate(-149.946) scale(126.306 185.345)">
<stop stop-color="#F97F5D"/>
<stop offset="0.208333" stop-color="#F96277"/>
<stop offset="0.458333" stop-color="#C2289A"/>
<stop offset="0.59375" stop-color="#765195"/>
<stop offset="0.90625" stop-color="#4ED4AF"/>
</radialGradient>
<radialGradient id="paint2_radial_531_10198" cx="0" cy="0" r="1" gradientUnits="userSpaceOnUse" gradientTransform="translate(97.7258 247.309) rotate(-175.742) scale(49.7707 38.8367)">
<stop stop-color="#F96277"/>
<stop offset="0.546875" stop-color="#F96277" stop-opacity="0.39"/>
<stop offset="1" stop-color="#F96277" stop-opacity="0"/>
</radialGradient>
<linearGradient id="paint3_linear_531_10198" x1="61.7993" y1="90.6663" x2="51.1959" y2="90.9579" gradientUnits="userSpaceOnUse">
<stop stop-color="#FF587A" stop-opacity="0"/>
<stop offset="0.432292" stop-color="#FD537C"/>
<stop offset="1" stop-color="#FD4980" stop-opacity="0"/>
</linearGradient>
<linearGradient id="paint4_linear_531_10198" x1="-2.96496" y1="139.703" x2="31.731" y2="136.782" gradientUnits="userSpaceOnUse">
<stop stop-color="#58167E" stop-opacity="0"/>
<stop offset="0.1875" stop-color="#58167E"/>
<stop offset="0.5" stop-color="#92177A"/>
<stop offset="0.744792" stop-color="#6E166D"/>
<stop offset="1" stop-color="#6E166D" stop-opacity="0"/>
</linearGradient>
<linearGradient id="paint5_linear_531_10198" x1="60.3925" y1="90.3833" x2="36.1599" y2="91.9112" gradientUnits="userSpaceOnUse">
<stop stop-color="#FA8393" stop-opacity="0"/>
<stop offset="0.432292" stop-color="#FA8393"/>
<stop offset="1" stop-color="#FA8393" stop-opacity="0"/>
</linearGradient>
<radialGradient id="paint6_radial_531_10198" cx="0" cy="0" r="1" gradientUnits="userSpaceOnUse" gradientTransform="translate(73.4846 79.7585) rotate(90) scale(26.2997 40.8247)">
<stop stop-color="#FCC565"/>
<stop offset="1" stop-color="#FCC565" stop-opacity="0"/>
</radialGradient>
<linearGradient id="paint7_linear_531_10198" x1="44.9351" y1="77.7941" x2="-6.94141" y2="93.6998" gradientUnits="userSpaceOnUse">
<stop stop-color="#46B9A0" stop-opacity="0"/>
<stop offset="0.432292" stop-color="#4ED4AF"/>
<stop offset="1" stop-color="#46B9A0" stop-opacity="0"/>
</linearGradient>
<linearGradient id="paint8_linear_531_10198" x1="76.5151" y1="143.163" x2="32.0488" y2="154.213" gradientUnits="userSpaceOnUse">
<stop stop-color="#46B9A0" stop-opacity="0"/>
<stop offset="0.432292" stop-color="#46B9A0"/>
<stop offset="1" stop-color="#46B9A0" stop-opacity="0"/>
</linearGradient>
<linearGradient id="paint9_linear_531_10198" x1="44.8217" y1="39.9589" x2="1.70032" y2="43.5834" gradientUnits="userSpaceOnUse">
<stop stop-color="#AC1884" stop-opacity="0"/>
<stop offset="0.5" stop-color="#AC1884"/>
<stop offset="1" stop-color="#AC1884" stop-opacity="0"/>
</linearGradient>
<linearGradient id="paint10_linear_531_10198" x1="21.1079" y1="23.6614" x2="0.748237" y2="25.0224" gradientUnits="userSpaceOnUse">
<stop stop-color="#4E5383" stop-opacity="0"/>
<stop offset="0.5" stop-color="#4E5383"/>
<stop offset="1" stop-color="#4E5383" stop-opacity="0"/>
</linearGradient>
<linearGradient id="paint11_linear_531_10198" x1="32.3393" y1="23.6614" x2="1.33223" y2="26.8371" gradientUnits="userSpaceOnUse">
<stop stop-color="#FED9D2" stop-opacity="0.82"/>
<stop offset="0.5" stop-color="#F96277"/>
<stop offset="1" stop-color="#F96277" stop-opacity="0"/>
</linearGradient>
<linearGradient id="paint12_linear_531_10198" x1="111.204" y1="201.079" x2="71.5502" y2="204.355" gradientUnits="userSpaceOnUse">
<stop stop-color="#FA8393" stop-opacity="0"/>
<stop offset="0.416667" stop-color="#FA8393"/>
<stop offset="1" stop-color="#FA8393" stop-opacity="0"/>
</linearGradient>
<linearGradient id="paint13_linear_531_10198" x1="117.285" y1="125.819" x2="77.6541" y2="129.629" gradientUnits="userSpaceOnUse">
<stop stop-color="#F96277" stop-opacity="0"/>
<stop offset="0.416667" stop-color="#F85269"/>
<stop offset="1" stop-color="#F96277" stop-opacity="0"/>
</linearGradient>
<linearGradient id="paint14_linear_531_10198" x1="125.081" y1="185.276" x2="85.6627" y2="189.694" gradientUnits="userSpaceOnUse">
<stop stop-color="#701763" stop-opacity="0"/>
<stop offset="0.416667" stop-color="#701763"/>
<stop offset="1" stop-color="#701763" stop-opacity="0"/>
</linearGradient>
<linearGradient id="paint15_linear_531_10198" x1="67.1097" y1="252.906" x2="36.0533" y2="259.894" gradientUnits="userSpaceOnUse">
<stop stop-color="#371551"/>
<stop offset="0.354167" stop-color="#563895"/>
<stop offset="1" stop-color="#4F2F93" stop-opacity="0"/>
</linearGradient>
<linearGradient id="paint16_linear_531_10198" x1="44.8217" y1="31.817" x2="1.87425" y2="36.3507" gradientUnits="userSpaceOnUse">
<stop stop-color="#FA8393" stop-opacity="0"/>
<stop offset="0.5" stop-color="#FA8393"/>
<stop offset="1" stop-color="#FA8393" stop-opacity="0"/>
</linearGradient>
<radialGradient id="paint17_radial_531_10198" cx="0" cy="0" r="1" gradientUnits="userSpaceOnUse" gradientTransform="translate(31.6259 37.7472) rotate(169.849) scale(29.6229 38.4693)">
<stop stop-color="#4E5383"/>
<stop offset="1" stop-color="#4E5383" stop-opacity="0"/>
</radialGradient>
<radialGradient id="paint18_radial_531_10198" cx="0" cy="0" r="1" gradientUnits="userSpaceOnUse" gradientTransform="translate(24.8378 27.0632) rotate(170.717) scale(23.2044 27.6526)">
<stop stop-color="#4E5383"/>
<stop offset="1" stop-color="#4E5383" stop-opacity="0"/>
</radialGradient>
<radialGradient id="paint19_radial_531_10198" cx="0" cy="0" r="1" gradientUnits="userSpaceOnUse" gradientTransform="translate(30.7966 31.9034) rotate(171.167) scale(28.7354 32.639)">
<stop stop-color="#765195"/>
<stop offset="1" stop-color="#765195" stop-opacity="0"/>
</radialGradient>
<radialGradient id="paint20_radial_531_10198" cx="0" cy="0" r="1" gradientUnits="userSpaceOnUse" gradientTransform="translate(51.67 25.6958) rotate(173.94) scale(43.27 24.5088)">
<stop stop-color="#4E5383"/>
<stop offset="1" stop-color="#4E5383" stop-opacity="0"/>
</radialGradient>
<linearGradient id="paint21_linear_531_10198" x1="224.675" y1="142.417" x2="178.37" y2="148.312" gradientUnits="userSpaceOnUse">
<stop stop-color="#8760A8" stop-opacity="0"/>
<stop offset="1" stop-color="#3C6A8B"/>
</linearGradient>
</defs>
</svg>
