<svg width="179" height="50" viewBox="0 0 179 50" fill="none" xmlns="http://www.w3.org/2000/svg">
<path fill-rule="evenodd" clip-rule="evenodd" d="M118.865 20.5068C118.865 20.5068 120.898 17.2357 125.79 17.2357C132.041 17.2357 136.026 22.2541 136.053 29.5511C136.053 37.0157 131.574 41.8524 125.46 41.8524C120.665 41.8524 118.576 38.5394 118.576 38.5394H118.48C118.48 38.5394 118.576 39.1825 118.576 40.1051V40.8459C118.576 41.0976 118.37 41.3072 118.123 41.3072H113.575C113.327 41.3072 113.121 41.0976 113.121 40.8459V14.5797C113.121 13.8808 112.75 13.5593 112.118 13.5593H110.758C110.511 13.5593 110.305 13.3496 110.305 13.098V9.03015C110.305 8.77853 110.511 8.56885 110.758 8.56885H114.454C116.886 8.56885 118.865 10.5818 118.865 13.056V18.5218C118.865 19.682 118.768 20.5068 118.768 20.5068H118.865ZM107.227 33.7172C107.227 35.0312 108.272 36.0796 109.55 36.0796C109.797 36.0796 109.989 36.2893 110.003 36.5129V40.5388C110.003 40.7905 109.797 41.0001 109.55 41.0001H105.881C103.449 41.0001 101.484 39.0012 101.484 36.5269V26.9934C101.484 24.3234 100.976 22.2965 98.3102 22.2965C95.4523 22.2965 93.4188 24.7428 92.7868 27.6923C92.5257 28.6149 92.4295 29.5795 92.4295 30.6838V40.5528C92.4295 40.8044 92.2234 41.0141 91.9761 41.0141H87.1122C86.8649 41.0141 86.6588 40.8044 86.6588 40.5528V27.0074C86.6588 24.4772 86.3015 22.3105 83.5398 22.3105C80.6407 22.3105 78.7033 24.7568 77.9751 27.7482C77.7553 28.6708 77.6179 29.6354 77.6179 30.6978V40.5668C77.6179 40.8184 77.4118 41.0281 77.1645 41.0281H72.3555C72.1082 41.0281 71.9021 40.8184 71.9021 40.5668V23.5126C71.9021 22.8137 71.5311 22.4922 70.8991 22.4922H69.5388C69.2915 22.4922 69.0854 22.2825 69.0854 22.0309V17.9631C69.0854 17.7114 69.2915 17.5018 69.5388 17.5018H74.389C76.4225 17.5018 77.4255 19.5147 77.4255 21.1782V21.8352H77.4667C78.5522 19.5427 81.3139 16.9566 84.9413 16.9566C88.4312 16.9566 90.6846 18.6201 91.6876 21.7933H91.7838C93.0066 19.2631 96.0019 16.9566 99.6705 16.9566C104.466 16.9566 107.227 19.7104 107.227 25.889V33.7172ZM124.428 36.9177C120.581 36.9177 118.671 33.3251 118.671 29.6907C118.671 24.4905 121.474 22.2679 124.469 22.2679C127.863 22.2679 130.226 25.1755 130.226 29.6347C130.226 34.2897 127.547 36.9177 124.428 36.9177ZM137.785 29.2579C137.785 22.0309 142.594 16.9566 149.519 16.9566C156.128 16.9566 159.741 21.8911 159.741 28.0977C159.741 28.559 159.687 29.3558 159.645 29.845C159.632 30.0827 159.439 30.2644 159.206 30.2644H144.188C143.899 30.2644 143.693 30.53 143.748 30.8096C144.394 34.6118 147.279 36.5828 150.604 36.5828C153.49 36.5828 155.812 34.9893 156.691 34.2903C156.911 34.1226 157.213 34.1785 157.351 34.4161L159.288 37.7011C159.398 37.8829 159.357 38.1345 159.192 38.2743C158.258 39.085 155.001 41.5593 150.192 41.5593C142.539 41.5593 137.785 35.9398 137.785 29.2579ZM153.379 26.224H144.434C144.132 26.224 143.912 25.9164 144.008 25.6229C144.778 23.0228 146.784 21.4712 149.518 21.4712C151.73 21.4712 153.53 23.1766 153.832 25.6928C153.846 25.9723 153.654 26.224 153.379 26.224ZM45.7266 29.2579C45.7266 22.0309 50.5355 16.9566 57.4605 16.9566C64.0831 16.9566 67.6967 21.8911 67.683 28.0977C67.683 28.559 67.628 29.3558 67.5868 29.845C67.5731 30.0827 67.3807 30.2644 67.1471 30.2644H52.1294C51.8408 30.2644 51.6485 30.53 51.6897 30.8096C52.3355 34.6118 55.2209 36.5828 58.5459 36.5828C61.4313 36.5828 63.7534 34.9893 64.6327 34.2903C64.8526 34.1226 65.1548 34.1785 65.2922 34.4161L67.2296 37.7011C67.3395 37.8829 67.2983 38.1345 67.1334 38.2743C66.1991 39.085 62.9427 41.5593 58.1337 41.5593C50.4806 41.5593 45.7266 35.9398 45.7266 29.2579ZM61.3365 26.224H52.3918C52.0895 26.224 51.8696 25.9164 51.9658 25.6229C52.7353 23.0228 54.7413 21.4712 57.4755 21.4712C59.6877 21.4712 61.4876 23.1766 61.7899 25.6928C61.8036 25.9723 61.6113 26.224 61.3365 26.224ZM177.293 16.9845C177.352 16.9896 177.409 16.9946 177.463 16.9985C177.682 17.0265 177.861 17.2222 177.861 17.4738V22.3244C177.861 22.59 177.641 22.7997 177.38 22.7718C177.147 22.7438 176.817 22.7298 176.46 22.7298C174.014 22.7298 171.211 24.1557 170.167 27.6644C169.851 28.8246 169.672 30.1106 169.672 31.4946V40.3431C169.672 40.5948 169.466 40.8044 169.219 40.8044H164.41C164.162 40.8044 163.956 40.5948 163.956 40.3431V23.289C163.956 22.59 163.585 22.2685 162.953 22.2685H161.593C161.346 22.2685 161.14 22.0589 161.14 21.8072V17.7394C161.14 17.4878 161.346 17.2781 161.593 17.2781H166.402C168.435 17.2781 169.48 19.0674 169.48 21.0524V22.4363C169.48 22.7578 169.466 22.9255 169.452 22.9954H169.48C170.524 19.6265 173.286 16.9566 176.817 16.9566C176.975 16.9566 177.141 16.9711 177.293 16.9845Z" fill="black"/>
<mask id="mask0_5223_79792" style="mask-type:alpha" maskUnits="userSpaceOnUse" x="45" y="8" width="133" height="34">
<path fill-rule="evenodd" clip-rule="evenodd" d="M118.865 20.5068C118.865 20.5068 120.898 17.2357 125.79 17.2357C132.041 17.2357 136.026 22.2541 136.053 29.5511C136.053 37.0157 131.574 41.8524 125.46 41.8524C120.665 41.8524 118.576 38.5394 118.576 38.5394H118.48C118.48 38.5394 118.576 39.1825 118.576 40.1051V40.8459C118.576 41.0976 118.37 41.3072 118.123 41.3072H113.575C113.327 41.3072 113.121 41.0976 113.121 40.8459V14.5797C113.121 13.8808 112.75 13.5593 112.118 13.5593H110.758C110.511 13.5593 110.305 13.3496 110.305 13.098V9.03015C110.305 8.77853 110.511 8.56885 110.758 8.56885H114.454C116.886 8.56885 118.865 10.5818 118.865 13.056V18.5218C118.865 19.682 118.768 20.5068 118.768 20.5068H118.865ZM107.227 33.7172C107.227 35.0312 108.272 36.0796 109.55 36.0796C109.797 36.0796 109.989 36.2893 110.003 36.5129V40.5388C110.003 40.7905 109.797 41.0001 109.55 41.0001H105.881C103.449 41.0001 101.484 39.0012 101.484 36.5269V26.9934C101.484 24.3234 100.976 22.2965 98.3102 22.2965C95.4523 22.2965 93.4188 24.7428 92.7868 27.6923C92.5257 28.6149 92.4295 29.5795 92.4295 30.6838V40.5528C92.4295 40.8044 92.2234 41.0141 91.9761 41.0141H87.1122C86.8649 41.0141 86.6588 40.8044 86.6588 40.5528V27.0074C86.6588 24.4772 86.3015 22.3105 83.5398 22.3105C80.6407 22.3105 78.7033 24.7568 77.9751 27.7482C77.7553 28.6708 77.6179 29.6354 77.6179 30.6978V40.5668C77.6179 40.8184 77.4118 41.0281 77.1645 41.0281H72.3555C72.1082 41.0281 71.9021 40.8184 71.9021 40.5668V23.5126C71.9021 22.8137 71.5311 22.4922 70.8991 22.4922H69.5388C69.2915 22.4922 69.0854 22.2825 69.0854 22.0309V17.9631C69.0854 17.7114 69.2915 17.5018 69.5388 17.5018H74.389C76.4225 17.5018 77.4255 19.5147 77.4255 21.1782V21.8352H77.4667C78.5522 19.5427 81.3139 16.9566 84.9413 16.9566C88.4312 16.9566 90.6846 18.6201 91.6876 21.7933H91.7838C93.0066 19.2631 96.0019 16.9566 99.6705 16.9566C104.466 16.9566 107.227 19.7104 107.227 25.889V33.7172ZM124.428 36.9177C120.581 36.9177 118.671 33.3251 118.671 29.6907C118.671 24.4905 121.474 22.2679 124.469 22.2679C127.863 22.2679 130.226 25.1755 130.226 29.6347C130.226 34.2897 127.547 36.9177 124.428 36.9177ZM137.785 29.2579C137.785 22.0309 142.594 16.9566 149.519 16.9566C156.128 16.9566 159.741 21.8911 159.741 28.0977C159.741 28.559 159.687 29.3558 159.645 29.845C159.632 30.0827 159.439 30.2644 159.206 30.2644H144.188C143.899 30.2644 143.693 30.53 143.748 30.8096C144.394 34.6118 147.279 36.5828 150.604 36.5828C153.49 36.5828 155.812 34.9893 156.691 34.2903C156.911 34.1226 157.213 34.1785 157.351 34.4161L159.288 37.7011C159.398 37.8829 159.357 38.1345 159.192 38.2743C158.258 39.085 155.001 41.5593 150.192 41.5593C142.539 41.5593 137.785 35.9398 137.785 29.2579ZM153.379 26.224H144.434C144.132 26.224 143.912 25.9164 144.008 25.6229C144.778 23.0228 146.784 21.4712 149.518 21.4712C151.73 21.4712 153.53 23.1766 153.832 25.6928C153.846 25.9723 153.654 26.224 153.379 26.224ZM45.7266 29.2579C45.7266 22.0309 50.5355 16.9566 57.4605 16.9566C64.0831 16.9566 67.6967 21.8911 67.683 28.0977C67.683 28.559 67.628 29.3558 67.5868 29.845C67.5731 30.0827 67.3807 30.2644 67.1471 30.2644H52.1294C51.8408 30.2644 51.6485 30.53 51.6897 30.8096C52.3355 34.6118 55.2209 36.5828 58.5459 36.5828C61.4313 36.5828 63.7534 34.9893 64.6327 34.2903C64.8526 34.1226 65.1548 34.1785 65.2922 34.4161L67.2296 37.7011C67.3395 37.8829 67.2983 38.1345 67.1334 38.2743C66.1991 39.085 62.9427 41.5593 58.1337 41.5593C50.4806 41.5593 45.7266 35.9398 45.7266 29.2579ZM61.3365 26.224H52.3918C52.0895 26.224 51.8696 25.9164 51.9658 25.6229C52.7353 23.0228 54.7413 21.4712 57.4755 21.4712C59.6877 21.4712 61.4876 23.1766 61.7899 25.6928C61.8036 25.9723 61.6113 26.224 61.3365 26.224ZM177.293 16.9845C177.352 16.9896 177.409 16.9946 177.463 16.9985C177.682 17.0265 177.861 17.2222 177.861 17.4738V22.3244C177.861 22.59 177.641 22.7997 177.38 22.7718C177.147 22.7438 176.817 22.7298 176.46 22.7298C174.014 22.7298 171.211 24.1557 170.167 27.6644C169.851 28.8246 169.672 30.1106 169.672 31.4946V40.3431C169.672 40.5948 169.466 40.8044 169.219 40.8044H164.41C164.162 40.8044 163.956 40.5948 163.956 40.3431V23.289C163.956 22.59 163.585 22.2685 162.953 22.2685H161.593C161.346 22.2685 161.14 22.0589 161.14 21.8072V17.7394C161.14 17.4878 161.346 17.2781 161.593 17.2781H166.402C168.435 17.2781 169.48 19.0674 169.48 21.0524V22.4363C169.48 22.7578 169.466 22.9255 169.452 22.9954H169.48C170.524 19.6265 173.286 16.9566 176.817 16.9566C176.975 16.9566 177.141 16.9711 177.293 16.9845Z" fill="white"/>
</mask>
<g mask="url(#mask0_5223_79792)">
<rect width="133.277" height="33.5492" transform="translate(45.7236 8.56934)" fill="black"/>
</g>
<mask id="mask1_5223_79792" style="mask-type:alpha" maskUnits="userSpaceOnUse" x="0" y="0" width="34" height="50">
<path d="M20.0607 32.1701C20.0685 32.4389 20.3499 32.6102 20.5936 32.4955L24.2832 30.7348C24.7784 30.4785 25.0033 30.4093 25.0174 31.1718C25.1636 39.5588 20.5244 42.1684 15.6133 42.3178C7.5218 42.5646 5.92615 30.3386 12.0698 26.3943L20.2021 21.9091C20.3452 21.8305 20.4332 21.6796 20.4332 21.5161L20.4097 17.0231C20.4081 16.715 20.1015 16.5012 19.8123 16.6065L17.3032 17.5121C13.8148 18.9584 8.39587 17.1049 8.24024 11.9831C8.15535 9.20679 9.82017 6.32361 13.3935 5.95103C17.0706 5.56744 20.287 8.93011 20.3955 12.5207V12.5207C20.4002 12.6638 20.5543 12.7518 20.68 12.6826L24.4908 10.5572C24.5584 10.5195 24.5977 10.4456 24.5898 10.3686C23.9751 4.39311 18.8376 -0.180056 12.7395 0.00544869C6.35689 0.200386 1.34041 5.53129 1.53535 11.9139V11.9139C1.6564 15.8787 3.7614 19.3168 6.86782 21.3055C2.59492 24.1478 -0.16092 29.0652 0.00729136 34.5722V34.5722C0.2714 43.2327 7.65385 49.9989 16.371 49.433C24.659 48.8953 30.9661 41.7581 30.713 33.456L30.5322 27.5324C30.5275 27.3752 30.6108 27.229 30.7476 27.152L33.5475 25.5909C33.7974 25.4526 33.9483 25.1853 33.9389 24.8992L33.7786 19.6233C33.7707 19.3514 33.4799 19.1832 33.2393 19.3105L20.3043 26.1836C20.0465 26.3204 19.8893 26.5908 19.8987 26.8816L20.0607 32.1701Z" fill="url(#paint0_linear_5223_79792)"/>
</mask>
<g mask="url(#mask1_5223_79792)">
<rect x="-10.6895" y="-5.48145" width="51.9416" height="60.3016" fill="#3D1558"/>
<path d="M1.02773 1.268L23.5903 -7.29549L50.0913 5.49348L28.9129 57.8937L1.02771 50.5081L-8.12393 25.1443L1.02773 1.268Z" fill="url(#paint1_radial_5223_79792)"/>
<rect x="10.4795" y="53.3789" width="16.8183" height="13.9585" transform="rotate(-93.2683 10.4795 53.3789)" fill="url(#paint2_radial_5223_79792)"/>
<rect x="12.0801" y="11.7866" width="2.98968" height="18.7067" transform="rotate(1.54286 12.0801 11.7866)" fill="url(#paint3_linear_5223_79792)"/>
<path d="M7.62742 21.3421L0.549089 21.342L-2.68504 48.3951L4.86298 50.9443L14.4629 52.2943L7.62742 21.3421Z" fill="url(#paint4_linear_5223_79792)"/>
<rect x="8.03418" y="11.7178" width="6.85443" height="18.7067" transform="rotate(1.54286 8.03418 11.7178)" fill="url(#paint5_linear_5223_79792)"/>
<ellipse cx="17.7724" cy="19.2885" rx="9.87296" ry="6.36026" fill="url(#paint6_radial_5223_79792)"/>
<rect x="-4.13184" y="8.67236" width="15.1637" height="18.7067" transform="rotate(-47.6236 -4.13184 8.67236)" fill="url(#paint7_linear_5223_79792)" fill-opacity="0.9"/>
<rect x="4.75684" y="26.8984" width="13.8986" height="14.2475" transform="rotate(-123.809 4.75684 26.8984)" fill="url(#paint8_linear_5223_79792)" fill-opacity="0.55"/>
<rect width="10.9149" height="18.8846" transform="matrix(-0.383393 -0.923585 -0.923585 0.383393 15.4922 35.7085)" fill="url(#paint9_linear_5223_79792)" fill-opacity="0.55"/>
<rect width="5.14016" height="11.1824" transform="matrix(0.841805 -0.539781 -0.539781 -0.841805 10.7988 10.3315)" fill="url(#paint10_linear_5223_79792)"/>
<rect width="7.87523" height="11.1824" transform="matrix(0.890384 0.45521 0.45521 -0.890384 14.9756 12.6323)" fill="url(#paint11_linear_5223_79792)"/>
<rect x="15.8955" y="42.5674" width="11.4713" height="11.1824" transform="rotate(-32.7307 15.8955 42.5674)" fill="url(#paint12_linear_5223_79792)"/>
<path d="M17.2254 23.9581L28.2677 21.575L28.9573 36.0806L17.4887 36.3247L17.2254 23.9581Z" fill="url(#paint13_linear_5223_79792)"/>
<rect x="19.2217" y="38.9717" width="12.0413" height="11.1824" transform="rotate(-57.3561 19.2217 38.9717)" fill="url(#paint14_linear_5223_79792)"/>
<rect x="8.96875" y="52.3809" width="7.67105" height="27.6915" transform="rotate(172.605 8.96875 52.3809)" fill="url(#paint15_linear_5223_79792)"/>
<rect width="10.9149" height="15.0368" transform="matrix(-0.918682 -0.394998 -0.394998 0.918682 18.3174 38.0308)" fill="url(#paint16_linear_5223_79792)"/>
<rect opacity="0.8" width="15.3058" height="18.3242" transform="matrix(-0.624027 -0.781403 -0.781403 0.624026 12.8721 29.0381)" fill="url(#paint17_radial_5223_79792)"/>
<rect opacity="0.66" width="12.0206" height="13.1377" transform="matrix(-0.772812 0.634635 0.634634 0.772813 4.21875 33.4224)" fill="url(#paint18_radial_5223_79792)"/>
<rect width="14.9044" height="15.4873" transform="matrix(-0.798945 0.601403 0.601404 0.798945 32.2363 19.1382)" fill="url(#paint19_radial_5223_79792)"/>
<rect opacity="0.66" width="25.0064" height="12.4738" transform="matrix(-0.212374 0.977188 0.977188 0.212374 27.0498 21.0015)" fill="url(#paint20_radial_5223_79792)"/>
<rect x="41.625" y="24.7285" width="13.2574" height="17.9193" transform="rotate(124.658 41.625 24.7285)" fill="url(#paint21_linear_5223_79792)"/>
</g>
<defs>
<linearGradient id="paint0_linear_5223_79792" x1="24.028" y1="-20.0646" x2="-19.9186" y2="-1.52477" gradientUnits="userSpaceOnUse">
<stop stop-color="#F9F871"/>
<stop offset="0.213963" stop-color="#FFC75F"/>
<stop offset="0.423162" stop-color="#FF9671"/>
<stop offset="0.61651" stop-color="#FF6F91"/>
<stop offset="0.805455" stop-color="#D65DB1"/>
<stop offset="1" stop-color="#845EC2"/>
</linearGradient>
<radialGradient id="paint1_radial_5223_79792" cx="0" cy="0" r="1" gradientUnits="userSpaceOnUse" gradientTransform="translate(20.0153 25.9608) rotate(-149.946) scale(30.5456 44.8235)">
<stop stop-color="#F97F5D"/>
<stop offset="0.208333" stop-color="#F96277"/>
<stop offset="0.458333" stop-color="#C2289A"/>
<stop offset="0.59375" stop-color="#765195"/>
<stop offset="0.90625" stop-color="#4ED4AF"/>
</radialGradient>
<radialGradient id="paint2_radial_5223_79792" cx="0" cy="0" r="1" gradientUnits="userSpaceOnUse" gradientTransform="translate(23.6348 59.8089) rotate(-175.742) scale(12.0364 9.39217)">
<stop stop-color="#F96277"/>
<stop offset="0.546875" stop-color="#F96277" stop-opacity="0.39"/>
<stop offset="1" stop-color="#F96277" stop-opacity="0"/>
</radialGradient>
<linearGradient id="paint3_linear_5223_79792" x1="14.9464" y1="21.927" x2="12.3821" y2="21.9975" gradientUnits="userSpaceOnUse">
<stop stop-color="#FF587A" stop-opacity="0"/>
<stop offset="0.432292" stop-color="#FD537C"/>
<stop offset="1" stop-color="#FD4980" stop-opacity="0"/>
</linearGradient>
<linearGradient id="paint4_linear_5223_79792" x1="-0.717712" y1="33.7852" x2="7.67307" y2="33.0788" gradientUnits="userSpaceOnUse">
<stop stop-color="#58167E" stop-opacity="0"/>
<stop offset="0.1875" stop-color="#58167E"/>
<stop offset="0.5" stop-color="#92177A"/>
<stop offset="0.744792" stop-color="#6E166D"/>
<stop offset="1" stop-color="#6E166D" stop-opacity="0"/>
</linearGradient>
<linearGradient id="paint5_linear_5223_79792" x1="14.6059" y1="21.8581" x2="8.74553" y2="22.2276" gradientUnits="userSpaceOnUse">
<stop stop-color="#FA8393" stop-opacity="0"/>
<stop offset="0.432292" stop-color="#FA8393"/>
<stop offset="1" stop-color="#FA8393" stop-opacity="0"/>
</linearGradient>
<radialGradient id="paint6_radial_5223_79792" cx="0" cy="0" r="1" gradientUnits="userSpaceOnUse" gradientTransform="translate(17.7724 19.2885) rotate(90) scale(6.36026 9.87296)">
<stop stop-color="#FCC565"/>
<stop offset="1" stop-color="#FCC565" stop-opacity="0"/>
</radialGradient>
<linearGradient id="paint7_linear_5223_79792" x1="10.8672" y1="18.8133" x2="-1.67848" y2="22.6599" gradientUnits="userSpaceOnUse">
<stop stop-color="#46B9A0" stop-opacity="0"/>
<stop offset="0.432292" stop-color="#4ED4AF"/>
<stop offset="1" stop-color="#46B9A0" stop-opacity="0"/>
</linearGradient>
<linearGradient id="paint8_linear_5223_79792" x1="18.5046" y1="34.622" x2="7.75092" y2="37.2944" gradientUnits="userSpaceOnUse">
<stop stop-color="#46B9A0" stop-opacity="0"/>
<stop offset="0.432292" stop-color="#46B9A0"/>
<stop offset="1" stop-color="#46B9A0" stop-opacity="0"/>
</linearGradient>
<linearGradient id="paint9_linear_5223_79792" x1="10.8396" y1="9.66356" x2="0.411201" y2="10.5401" gradientUnits="userSpaceOnUse">
<stop stop-color="#AC1884" stop-opacity="0"/>
<stop offset="0.5" stop-color="#AC1884"/>
<stop offset="1" stop-color="#AC1884" stop-opacity="0"/>
</linearGradient>
<linearGradient id="paint10_linear_5223_79792" x1="5.10468" y1="5.72222" x2="0.180952" y2="6.05136" gradientUnits="userSpaceOnUse">
<stop stop-color="#4E5383" stop-opacity="0"/>
<stop offset="0.5" stop-color="#4E5383"/>
<stop offset="1" stop-color="#4E5383" stop-opacity="0"/>
</linearGradient>
<linearGradient id="paint11_linear_5223_79792" x1="7.82086" y1="5.72222" x2="0.322183" y2="6.49022" gradientUnits="userSpaceOnUse">
<stop stop-color="#FED9D2" stop-opacity="0.82"/>
<stop offset="0.5" stop-color="#F96277"/>
<stop offset="1" stop-color="#F96277" stop-opacity="0"/>
</linearGradient>
<linearGradient id="paint12_linear_5223_79792" x1="26.8936" y1="48.629" x2="17.3038" y2="49.4214" gradientUnits="userSpaceOnUse">
<stop stop-color="#FA8393" stop-opacity="0"/>
<stop offset="0.416667" stop-color="#FA8393"/>
<stop offset="1" stop-color="#FA8393" stop-opacity="0"/>
</linearGradient>
<linearGradient id="paint13_linear_5223_79792" x1="28.3638" y1="30.4276" x2="18.7795" y2="31.349" gradientUnits="userSpaceOnUse">
<stop stop-color="#F96277" stop-opacity="0"/>
<stop offset="0.416667" stop-color="#F85269"/>
<stop offset="1" stop-color="#F96277" stop-opacity="0"/>
</linearGradient>
<linearGradient id="paint14_linear_5223_79792" x1="30.2507" y1="44.8068" x2="20.7179" y2="45.8753" gradientUnits="userSpaceOnUse">
<stop stop-color="#701763" stop-opacity="0"/>
<stop offset="0.416667" stop-color="#701763"/>
<stop offset="1" stop-color="#701763" stop-opacity="0"/>
</linearGradient>
<linearGradient id="paint15_linear_5223_79792" x1="16.2295" y1="61.1622" x2="8.71894" y2="62.8522" gradientUnits="userSpaceOnUse">
<stop stop-color="#371551"/>
<stop offset="0.354167" stop-color="#563895"/>
<stop offset="1" stop-color="#4F2F93" stop-opacity="0"/>
</linearGradient>
<linearGradient id="paint16_linear_5223_79792" x1="10.8396" y1="7.69455" x2="0.453265" y2="8.79097" gradientUnits="userSpaceOnUse">
<stop stop-color="#FA8393" stop-opacity="0"/>
<stop offset="0.5" stop-color="#FA8393"/>
<stop offset="1" stop-color="#FA8393" stop-opacity="0"/>
</linearGradient>
<radialGradient id="paint17_radial_5223_79792" cx="0" cy="0" r="1" gradientUnits="userSpaceOnUse" gradientTransform="translate(7.64833 9.1287) rotate(169.849) scale(7.16392 9.30333)">
<stop stop-color="#4E5383"/>
<stop offset="1" stop-color="#4E5383" stop-opacity="0"/>
</radialGradient>
<radialGradient id="paint18_radial_5223_79792" cx="0" cy="0" r="1" gradientUnits="userSpaceOnUse" gradientTransform="translate(6.00671 6.5449) rotate(170.717) scale(5.6117 6.68743)">
<stop stop-color="#4E5383"/>
<stop offset="1" stop-color="#4E5383" stop-opacity="0"/>
</radialGradient>
<radialGradient id="paint19_radial_5223_79792" cx="0" cy="0" r="1" gradientUnits="userSpaceOnUse" gradientTransform="translate(7.44777 7.71545) rotate(171.167) scale(6.94929 7.89333)">
<stop stop-color="#765195"/>
<stop offset="1" stop-color="#765195" stop-opacity="0"/>
</radialGradient>
<radialGradient id="paint20_radial_5223_79792" cx="0" cy="0" r="1" gradientUnits="userSpaceOnUse" gradientTransform="translate(12.4958 6.2142) rotate(173.94) scale(10.4643 5.92716)">
<stop stop-color="#4E5383"/>
<stop offset="1" stop-color="#4E5383" stop-opacity="0"/>
</radialGradient>
<linearGradient id="paint21_linear_5223_79792" x1="54.3355" y1="34.442" x2="43.1373" y2="35.8677" gradientUnits="userSpaceOnUse">
<stop stop-color="#8760A8" stop-opacity="0"/>
<stop offset="1" stop-color="#3C6A8B"/>
</linearGradient>
</defs>
</svg>
