<svg width="465" height="115" viewBox="0 0 465 115" fill="none" xmlns="http://www.w3.org/2000/svg">
<path fill-rule="evenodd" clip-rule="evenodd" d="M255.06 40.9208C255.06 40.9208 262.152 29.7083 279.21 29.7083C301.012 29.7083 314.908 46.9104 315.004 71.9229C315.004 97.5104 299.383 114.09 278.06 114.09C261.337 114.09 254.054 102.733 254.054 102.733H253.719C253.719 102.733 254.054 104.938 254.054 108.1V110.64C254.054 111.502 253.335 112.221 252.473 112.221H236.612C235.75 112.221 235.031 111.502 235.031 110.64V20.6042C235.031 18.2083 233.737 17.1063 231.533 17.1063H226.79C225.927 17.1063 225.208 16.3875 225.208 15.525V1.58125C225.208 0.71875 225.927 0 226.79 0H239.679C248.16 0 255.06 6.9 255.06 15.3813V34.1167C255.06 38.0938 254.725 40.9208 254.725 40.9208H255.06ZM214.475 86.2021C214.475 90.7062 218.117 94.3 222.573 94.3C223.435 94.3 224.106 95.0187 224.154 95.7854V109.585C224.154 110.448 223.435 111.167 222.573 111.167H209.779C201.298 111.167 194.446 104.315 194.446 95.8333V63.1542C194.446 54.0021 192.673 47.0542 183.377 47.0542C173.41 47.0542 166.319 55.4396 164.115 65.55C163.204 68.7125 162.869 72.0187 162.869 75.8042V109.633C162.869 110.496 162.15 111.215 161.288 111.215H144.325C143.462 111.215 142.744 110.496 142.744 109.633V63.2021C142.744 54.5292 141.498 47.1021 131.867 47.1021C121.756 47.1021 115 55.4875 112.46 65.7417C111.694 68.9042 111.215 72.2104 111.215 75.8521V109.681C111.215 110.544 110.496 111.262 109.633 111.262H92.8625C92 111.262 91.2812 110.544 91.2812 109.681V51.2229C91.2812 48.8271 89.9875 47.725 87.7833 47.725H83.0396C82.1771 47.725 81.4583 47.0062 81.4583 46.1437V32.2C81.4583 31.3375 82.1771 30.6187 83.0396 30.6187H99.9542C107.046 30.6187 110.544 37.5187 110.544 43.2208V45.4729H110.688C114.473 37.6146 124.104 28.75 136.754 28.75C148.925 28.75 156.783 34.4521 160.281 45.3292H160.617C164.881 36.6562 175.327 28.75 188.121 28.75C204.844 28.75 214.475 38.1896 214.475 59.3687V86.2021ZM274.467 97.175C261.05 97.175 254.39 84.8604 254.39 72.4021C254.39 54.5771 264.165 46.9583 274.61 46.9583C286.446 46.9583 294.688 56.925 294.688 72.2104C294.688 88.1667 285.344 97.175 274.467 97.175ZM321.042 70.9167C321.042 46.1437 337.812 28.75 361.962 28.75C385.01 28.75 397.612 45.6646 397.612 66.9396C397.612 68.5208 397.421 71.2521 397.277 72.9292C397.229 73.7438 396.558 74.3667 395.744 74.3667H343.371C342.365 74.3667 341.646 75.2771 341.837 76.2354C344.09 89.2687 354.152 96.025 365.748 96.025C375.81 96.025 383.908 90.5625 386.975 88.1667C387.742 87.5917 388.796 87.7833 389.275 88.5979L396.031 99.8583C396.415 100.481 396.271 101.344 395.696 101.823C392.438 104.602 381.081 113.083 364.31 113.083C337.621 113.083 321.042 93.8208 321.042 70.9167ZM375.427 60.5187H344.233C343.179 60.5187 342.413 59.4646 342.748 58.4583C345.431 49.5458 352.427 44.2271 361.962 44.2271C369.677 44.2271 375.954 50.0729 377.008 58.6979C377.056 59.6562 376.385 60.5187 375.427 60.5187ZM0 70.9167C0 46.1437 16.7708 28.75 40.9208 28.75C64.0167 28.75 76.6187 45.6646 76.5708 66.9396C76.5708 68.5208 76.3792 71.2521 76.2354 72.9292C76.1875 73.7438 75.5167 74.3667 74.7021 74.3667H22.3292C21.3229 74.3667 20.6521 75.2771 20.7958 76.2354C23.0479 89.2687 33.1104 96.025 44.7062 96.025C54.7687 96.025 62.8667 90.5625 65.9333 88.1667C66.7 87.5917 67.7542 87.7833 68.2333 88.5979L74.9896 99.8583C75.3729 100.481 75.2292 101.344 74.6542 101.823C71.3958 104.602 60.0396 113.083 43.2687 113.083C16.5792 113.083 0 93.8208 0 70.9167ZM54.4333 60.5187H23.2396C22.1854 60.5187 21.4187 59.4646 21.7541 58.4583C24.4375 49.5458 31.4333 44.2271 40.9687 44.2271C48.6833 44.2271 54.9604 50.0729 56.0146 58.6979C56.0625 59.6562 55.3916 60.5187 54.4333 60.5187ZM458.834 28.8455C459.039 28.8633 459.238 28.8804 459.425 28.8937C460.192 28.9896 460.815 29.6604 460.815 30.5229V47.15C460.815 48.0604 460.048 48.7792 459.137 48.6833C458.323 48.5875 457.173 48.5396 455.927 48.5396C447.398 48.5396 437.623 53.4271 433.981 65.4542C432.879 69.4313 432.256 73.8396 432.256 78.5833V108.915C432.256 109.777 431.538 110.496 430.675 110.496H413.904C413.042 110.496 412.323 109.777 412.323 108.915V50.4563C412.323 48.0604 411.029 46.9583 408.825 46.9583H404.081C403.219 46.9583 402.5 46.2396 402.5 45.3771V31.4333C402.5 30.5708 403.219 29.8521 404.081 29.8521H420.852C427.944 29.8521 431.585 35.9854 431.585 42.7896V47.5333C431.585 48.6354 431.538 49.2104 431.49 49.45H431.585C435.227 37.9021 444.858 28.75 457.173 28.75C457.725 28.75 458.303 28.7998 458.834 28.8455Z" fill="black"/>
<mask id="mask0_144_7641" style="mask-type:alpha" maskUnits="userSpaceOnUse" x="0" y="0" width="461" height="115">
<path fill-rule="evenodd" clip-rule="evenodd" d="M255.06 40.9208C255.06 40.9208 262.152 29.7083 279.21 29.7083C301.012 29.7083 314.908 46.9104 315.004 71.9229C315.004 97.5104 299.383 114.09 278.06 114.09C261.337 114.09 254.054 102.733 254.054 102.733H253.719C253.719 102.733 254.054 104.938 254.054 108.1V110.64C254.054 111.502 253.335 112.221 252.473 112.221H236.612C235.75 112.221 235.031 111.502 235.031 110.64V20.6042C235.031 18.2083 233.737 17.1063 231.533 17.1063H226.79C225.927 17.1063 225.208 16.3875 225.208 15.525V1.58125C225.208 0.71875 225.927 0 226.79 0H239.679C248.16 0 255.06 6.9 255.06 15.3813V34.1167C255.06 38.0938 254.725 40.9208 254.725 40.9208H255.06ZM214.475 86.2021C214.475 90.7062 218.117 94.3 222.573 94.3C223.435 94.3 224.106 95.0187 224.154 95.7854V109.585C224.154 110.448 223.435 111.167 222.573 111.167H209.779C201.298 111.167 194.446 104.315 194.446 95.8333V63.1542C194.446 54.0021 192.673 47.0542 183.377 47.0542C173.41 47.0542 166.319 55.4396 164.115 65.55C163.204 68.7125 162.869 72.0187 162.869 75.8042V109.633C162.869 110.496 162.15 111.215 161.288 111.215H144.325C143.462 111.215 142.744 110.496 142.744 109.633V63.2021C142.744 54.5292 141.498 47.1021 131.867 47.1021C121.756 47.1021 115 55.4875 112.46 65.7417C111.694 68.9042 111.215 72.2104 111.215 75.8521V109.681C111.215 110.544 110.496 111.262 109.633 111.262H92.8625C92 111.262 91.2812 110.544 91.2812 109.681V51.2229C91.2812 48.8271 89.9875 47.725 87.7833 47.725H83.0396C82.1771 47.725 81.4583 47.0062 81.4583 46.1437V32.2C81.4583 31.3375 82.1771 30.6187 83.0396 30.6187H99.9542C107.046 30.6187 110.544 37.5187 110.544 43.2208V45.4729H110.688C114.473 37.6146 124.104 28.75 136.754 28.75C148.925 28.75 156.783 34.4521 160.281 45.3292H160.617C164.881 36.6562 175.327 28.75 188.121 28.75C204.844 28.75 214.475 38.1896 214.475 59.3687V86.2021ZM274.467 97.175C261.05 97.175 254.39 84.8604 254.39 72.4021C254.39 54.5771 264.165 46.9583 274.61 46.9583C286.446 46.9583 294.688 56.925 294.688 72.2104C294.688 88.1667 285.344 97.175 274.467 97.175ZM321.042 70.9167C321.042 46.1437 337.812 28.75 361.962 28.75C385.01 28.75 397.612 45.6646 397.612 66.9396C397.612 68.5208 397.421 71.2521 397.277 72.9292C397.229 73.7438 396.558 74.3667 395.744 74.3667H343.371C342.365 74.3667 341.646 75.2771 341.837 76.2354C344.09 89.2687 354.152 96.025 365.748 96.025C375.81 96.025 383.908 90.5625 386.975 88.1667C387.742 87.5917 388.796 87.7833 389.275 88.5979L396.031 99.8583C396.415 100.481 396.271 101.344 395.696 101.823C392.438 104.602 381.081 113.083 364.31 113.083C337.621 113.083 321.042 93.8208 321.042 70.9167ZM375.427 60.5187H344.233C343.179 60.5187 342.413 59.4646 342.748 58.4583C345.431 49.5458 352.427 44.2271 361.962 44.2271C369.677 44.2271 375.954 50.0729 377.008 58.6979C377.056 59.6562 376.385 60.5187 375.427 60.5187ZM0 70.9167C0 46.1437 16.7708 28.75 40.9208 28.75C64.0167 28.75 76.6187 45.6646 76.5708 66.9396C76.5708 68.5208 76.3792 71.2521 76.2354 72.9292C76.1875 73.7438 75.5167 74.3667 74.7021 74.3667H22.3292C21.3229 74.3667 20.6521 75.2771 20.7958 76.2354C23.0479 89.2687 33.1104 96.025 44.7062 96.025C54.7687 96.025 62.8667 90.5625 65.9333 88.1667C66.7 87.5917 67.7542 87.7833 68.2333 88.5979L74.9896 99.8583C75.3729 100.481 75.2292 101.344 74.6542 101.823C71.3958 104.602 60.0396 113.083 43.2687 113.083C16.5792 113.083 0 93.8208 0 70.9167ZM54.4333 60.5187H23.2396C22.1854 60.5187 21.4187 59.4646 21.7541 58.4583C24.4375 49.5458 31.4333 44.2271 40.9687 44.2271C48.6833 44.2271 54.9604 50.0729 56.0146 58.6979C56.0625 59.6562 55.3916 60.5187 54.4333 60.5187ZM458.834 28.8455C459.039 28.8633 459.238 28.8804 459.425 28.8937C460.192 28.9896 460.815 29.6604 460.815 30.5229V47.15C460.815 48.0604 460.048 48.7792 459.137 48.6833C458.323 48.5875 457.173 48.5396 455.927 48.5396C447.398 48.5396 437.623 53.4271 433.981 65.4542C432.879 69.4313 432.256 73.8396 432.256 78.5833V108.915C432.256 109.777 431.538 110.496 430.675 110.496H413.904C413.042 110.496 412.323 109.777 412.323 108.915V50.4563C412.323 48.0604 411.029 46.9583 408.825 46.9583H404.081C403.219 46.9583 402.5 46.2396 402.5 45.3771V31.4333C402.5 30.5708 403.219 29.8521 404.081 29.8521H420.852C427.944 29.8521 431.585 35.9854 431.585 42.7896V47.5333C431.585 48.6354 431.538 49.2104 431.49 49.45H431.585C435.227 37.9021 444.858 28.75 457.173 28.75C457.725 28.75 458.303 28.7998 458.834 28.8455Z" fill="white"/>
</mask>
<g mask="url(#mask0_144_7641)">
<rect width="464.792" height="115" fill="black"/>
</g>
</svg>
